<svg xmlns="http://www.w3.org/2000/svg" viewBox="0 0 300 50"><path d="m300 37-1-3-1-3-3-10a514 514 0 0 1-1-5l6-7-3-9h-31l-1 1V0h-31v2l-1-2h-31v2l-1-2h-31v3-3h-32v3-3h-32v2-2H91l-2 9V7h-1l-2-7H71v2l-1-2H55v2l-1-2H40l-2 7h-4l-1 3-7-10H12L0 38l13 12h14l2-9 1 2h4l6 7h15v-1l1 1h15v-2l1 2h14l1-8 4 8h15v-2l1 2h31v-3 3h32v-3 3h15l1-2v2h15l1-2v2h15l1-2v2h15l1-2v2h14l9-12-1-2h5l7-9 6 23h14l12-12v-1zm-146-9v-5h15v-2 7h-15z"/><path d="m27 8.8-2 6.8h8.7L35.5 9h4l1.7-6.6h11.4l-8 34.8H32.2l3.7-14.8h-4.5l-1.9 7.2h-8l2-7.2H19l-4.4 14.8H2.5L13.6 2.4H25l-2 6.3zm41.4-6.4-6.8 34.7H49.3L57 2.5zm16.8 23.5 1-7.2h-4.5l-3 18.4H66.5L73 2.3h11.4l-1 6.4 4 .1-1 6.8h4.4l2-13.3H104L100 37H87.7l1.5-11zm49.5 4-.4 7.1h-29.5l3.7-34.7h27.4l-.3 6.1h-16.1l-.5 7.1h16.3l-.3 6.8h-16.6l-.6 7.5zM295.2 2l2 6.2h-8v.2a158.3 158.3 0 0 0 3.6 12.8l1.4 4.4a1379 1379 0 0 1 1.7 5.6l.8 2.8.9 2.9H285l-7.9-28.7h-8L267.8 2h27.5zm-28.7 13.2 1.7 6.9h-16.7l3 14.8h-12.4L235.8 2h27.5l1.5 6.2h-16.2l1.5 7zm-47.9 10.5 1.6 11.2h-12.5L204 2.2h27.5l6 34.8H225l-1.6-11.2h-4.7zm8.1-13.7-.7-4.4h-5.4l.5 4h-4.3l-.5-4H211l.5 4.4h4.9l.2 1.6h-2.4l.9 6.8h2.9l-.2-2.3h4.3l.3 2.3h3l-1-6.8h-2.5l-.2-1.6h5m-29.6 7h4l1.9 18h-12.4l-1.1-14.7h-4.6l1 14.7h-12.5L172 2.2h27.4l1.3 13-4.1-.1.4 3.9zm-8.1-3.5-.6-7.1H184l.4 7.1h4.6m-37-7.1h15.8l-.1-6.2h-27.4L139 37h29.5l-.2-7.1h-16.9z" fill="#a9a09d"/><path d="M4 37v1l9 9 2 1h8l1-1-8-9a4 4 0 0 0-3-1H4zm30 0-1 1 7 8a4 4 0 0 0 3 2h8v-2l-5-8a4 4 0 0 0-3-1h-9zm-11-7v1l7 8 3 1v-1l-1-1v-6l-1-1a4 4 0 0 0-3-1h-5zm28 7-1 2 6 8 3 1h8v-2l-4-8a3 3 0 0 0-3-1h-9zm17 0-1 1 5 8 2 1h8c1 0 2 0 1-1l-3-8a3 3 0 0 0-3-1h-9zm21 0-1 1 4 8 2 2h8c1 0 2-1 1-2l-2-8a3 3 0 0 0-3-1h-9zm17 0-1 2 3 7 2 2h24l2-2-1-7a2 2 0 0 0-2-2h-27zm35 0-2 2 1 7 2 2h24a2 2 0 0 0 2-2l1-7-2-2h-26zm34 0-2 2-1 7 2 1h8c1 1 1 0 2-1l1-8-1-1h-9zm17 0-2 2-2 7 2 1h8l2-1 2-8-1-1h-9zm17 0-2 1-3 8 2 2h8l2-2 4-8-1-1h-10zm18 0-3 1-4 8 1 2h9l2-2 5-8-1-1h-9zm17 0-3 1-5 8 1 1h8l3-1 6-8-1-1h-9zm43 0a4 4 0 0 0-3 1l-7 8v1h8l3-1 8-8v-1h-9zM20 42v-2l1-1c0-1 0-1 0 0v2c0 1 0 2-1 1m32 5v-2h1l-1 2m28-19h1v1c1 0 1 1 0 0l-1-1m159 15v-2l-1-2v3l1 1m41 0v-2l-1-4h-1l1 4 1 1m2-15-1 1-2 3 1 1 1-3 1-2" fill="#282828"/></svg>
